<svg height="511pt" viewBox="0 -11 511.998 511" width="511pt" xmlns="http://www.w3.org/2000/svg"><path d="m329.550781 35.945312h-147.101562c-96.625 0-174.953125 78.328126-174.953125 174.953126v128.941406c0 2.757812 2.238281 4.996094 5 4.996094h69.964844c2.761718 0 5-2.238282 5-4.996094v-128.941406c0-23.101563 8.25-44.273438 21.957031-60.738282l9.613281 154.109375c.496094 8.007813.214844 16.046875-.84375 24l-11.660156 87.464844c-.921875 6.917969 4.460937 13.0625 11.441406 13.0625h276.078125c6.976563 0 12.355469-6.140625 11.4375-13.054687l-11.683594-88.195313c-1.050781-7.929687-1.328125-15.941406-.828125-23.921875l9.597656-153.480469c13.714844 16.46875 21.96875 37.644531 21.96875 60.753907v128.941406c0 2.761718 2.238282 5 5 5h69.96875c2.757813 0 4.996094-2.238282 4.996094-5v-128.941406c0-96.625-78.328125-174.953126-174.953125-174.953126zm0 0" fill="#d2d2dd"/><g fill="#aeaeb4"><path d="m329.550781 35.945312h-27.460937c96.472656 0 174.953125 78.480469 174.953125 174.953126v133.9375h22.460937c2.761719 0 5-2.238282 5-4.996094v-128.941406c0-96.625-78.328125-174.953126-174.953125-174.953126zm0 0"/><path d="m109.421875 150.222656c-.660156-10.546875-13.335937-15.617187-21.019531-8.363281-18.347656 17.328125-29.8125 41.867187-29.8125 69.039063v133.9375h23.871094c2.761718 0 5-2.238282 5-4.996094v-128.941406c0-23.050782 8.253906-44.207032 21.960937-60.675782zm0 0"/><path d="m393.800781 327.546875c-1.050781-7.929687-1.328125-15.941406-.828125-23.921875l9.59375-153.417969c-3.78125-4.542969-7.980468-8.730469-12.535156-12.5-6.59375-5.457031-16.59375-1.1875-17.128906 7.355469l-9.917969 158.558594c-.5 7.984375-.222656 15.996094.828125 23.925781l11.683594 88.195313c.917968 6.914062-4.460938 13.054687-11.4375 13.054687h29.988281c6.972656 0 12.351563-6.140625 11.4375-13.054687zm0 0"/></g><path d="m323.898438 80.160156-64.039063 86.511719-64.042969-86.511719c-4.40625-5.949218-6.785156-13.164062-6.785156-20.570312 0-19.09375 15.480469-34.574219 34.574219-34.574219h72.503906c19.09375 0 34.574219 15.480469 34.574219 34.574219 0 7.40625-2.378906 14.621094-6.785156 20.570312zm0 0" fill="#919191"/><path d="m296.109375 25.019531h-22.382813c11.328126 0 17.960938 12.757813 11.453126 22.03125l-5.898438 8.402344-50.878906 68.726563 31.457031 42.492187 64.039063-86.511719c4.410156-5.949218 6.789062-13.164062 6.789062-20.570312-.003906-19.09375-15.480469-34.570313-34.578125-34.570313zm0 0" fill="#727070"/><path d="m106.476562 416.226562 244.070313-330.140624c6.238281-8.429688 9.605469-18.640626 9.605469-29.132813 0-27.039063-21.917969-48.957031-48.957032-48.957031h-102.675781c-27.039062 0-48.957031 21.917968-48.957031 48.957031 0 10.492187 3.367188 20.703125 9.609375 29.132813l68.914063 93.09375-122.050782 165.222656zm153.382813-266.578124-57.582031-77.78125-5.097656-7.261719c-6.515626-9.273438.121093-22.035157 11.449218-22.035157h102.414063c11.328125 0 17.960937 12.757813 11.453125 22.03125l-5.898438 8.40625zm0 0" fill="#e4e4ea"/><path d="m354.921875 34.9375c.203125 1.824219.320313 3.671875.320313 5.546875 0 10.492187-3.367188 20.703125-9.609376 29.132813l-235.40625 318.421874-3.75 28.1875 244.070313-330.140624c6.238281-8.429688 9.605469-18.640626 9.605469-29.132813 0-7.921875-1.890625-15.394531-5.230469-22.015625zm0 0" fill="#aeaeb4"/><path d="m392.394531 346.789062-273.832031-.363281c-2.757812-.003906-4.992188-2.242187-4.988281-5l.027343-24.988281c.003907-2.761719 2.246094-4.996094 5.003907-4.992188l273.832031.363282c2.757812.003906 4.992188 2.242187 4.988281 5.003906l-.027343 24.988281c-.003907 2.757813-2.242188 4.992188-5.003907 4.988281zm0 0" fill="#727070"/><path d="m392.4375 311.808594-33.125-.046875c.53125.878906.84375 1.90625.839844 3.007812l-.03125 29.128907c-.003906 1.035156-.277344 2.007812-.75 2.847656l33.023437.042968c2.761719.007813 5-2.230468 5.003907-4.988281l.027343-24.988281c.003907-2.761719-2.230469-5-4.988281-5.003906zm0 0" fill="#545353"/><path d="m269.152344 314.839844-4.351563-1.28125c-5-1.46875-10.273437-1.761719-15.40625-.859375-5.011719.886719-9.761719 2.890625-13.894531 5.867187l-186.097656 133.820313c-2.238282 1.613281-2.746094 4.738281-1.132813 6.976562l14.609375 20.277344c1.609375 2.238281 4.734375 2.746094 6.972656 1.132813l182.417969-131.167969c2.027344-1.464844 4.621094-1.90625 7.019531-1.203125 62.570313 18.386718 118.945313 54.371094 163.34375 104.203125 1.828126 2.050781 4.953126 2.277343 7.027344.476562l18.878906-16.371093c2.113282-1.832032 2.304688-5.03125.445313-7.117188-48.789063-54.855469-110.863281-94.484375-179.832031-114.753906zm0 0" fill="#727070"/><path d="m448.984375 429.59375c-48.789063-54.855469-110.863281-94.484375-179.832031-114.753906l-4.351563-1.28125c-5-1.46875-10.273437-1.761719-15.40625-.855469-2.566406.453125-5.0625 1.203125-7.445312 2.222656 68.851562 20.292969 130.828125 59.886719 179.550781 114.667969 1.855469 2.085938 1.664062 5.285156-.445312 7.117188l-7.277344 6.308593c3 3.136719 5.957031 6.332031 8.855468 9.585938 1.828126 2.050781 4.953126 2.277343 7.027344.476562l18.878906-16.371093c2.113282-1.832032 2.304688-5.03125.445313-7.117188zm0 0" fill="#545353"/><path d="m289.339844 332.847656c0 16.28125-13.199219 29.480469-29.480469 29.480469-16.285156 0-29.484375-13.199219-29.484375-29.480469 0-16.285156 13.199219-29.484375 29.484375-29.484375 16.28125 0 29.480469 13.199219 29.480469 29.484375zm0 0" fill="#727070"/><path d="m274.386719 307.195312c.769531 2.628907 1.1875 5.40625 1.1875 8.285157 0 16.28125-13.199219 29.484375-29.480469 29.484375-5.285156 0-10.242188-1.398438-14.53125-3.832032 3.582031 12.246094 14.890625 21.195313 28.296875 21.195313 16.28125 0 29.480469-13.199219 29.480469-29.480469 0-11-6.027344-20.585937-14.953125-25.652344zm0 0" fill="#545353"/><path d="m497.183594 138.765625c-1.636719-3.800781-6.046875-5.554687-9.847656-3.917969-3.804688 1.640625-5.558594 6.050782-3.921876 9.851563 9.019532 20.933593 13.59375 43.203125 13.59375 66.199219v126.441406h-64.96875v-126.441406c0-23.917969-8.421874-47.199219-23.707031-65.550782-1.96875-2.363281-5.175781-3.28125-8.089843-2.328125-2.921876.953125-4.960938 3.59375-5.152344 6.65625l-9.601563 153.480469c-.023437.378906-.03125.765625-.050781 1.144531l-102.238281-.113281c-6.371094-5.199219-14.496094-8.320312-23.34375-8.320312-8.777344 0-16.847657 3.078124-23.195313 8.210937l-81.449218-.089844 88.902343-120.347656s0 0 .003907-.003906l78.503906-106.171875c.039062-.050782.074218-.101563.109375-.148438l5.902343-8.40625c4.625-6.589844 5.1875-15.117187 1.476563-22.257812s-11.019531-11.578125-19.066406-11.578125h-102.414063c-8.050781 0-15.355468 4.4375-19.066406 11.578125-3.714844 7.144531-3.148438 15.671875 1.480469 22.261718l5.101562 7.261719c.035157.050781.070313.101563.109375.148438l34.808594 47.027343c2.464844 3.328126 7.160156 4.023438 10.488281 1.5625 3.328125-2.464843 4.023438-7.15625 1.5625-10.484374l-34.753906-46.949219-5.046875-7.183594c-2.046875-2.914063-.996094-5.679687-.449219-6.730469.550781-1.050781 2.207031-3.5 5.765625-3.5h102.414063c3.558593 0 5.214843 2.449219 5.765625 3.5.546875 1.050782 1.597656 3.816406-.449219 6.730469l-5.847656 8.328125-72.425781 97.949219-62.886719-84.949219c-5.25-7.089844-8.140625-15.851562-8.140625-24.671875 0-22.859375 18.601562-41.460937 41.464844-41.460937h102.671874c22.863282 0 41.460938 18.601562 41.460938 41.460937 0 8.820313-2.886719 17.582031-8.140625 24.675781l-140.796875 190.449219c-2.460938 3.328125-1.757812 8.023437 1.570312 10.484375 3.332032 2.460938 8.027344 1.757812 10.488282-1.570312l140.792968-190.449219c7.144532-9.652344 11.082032-21.582031 11.082032-33.589844 0-3.175781-.277344-6.289063-.785156-9.324219 40.054687 9.167969 75.960937 33.179688 99.808593 67.125 1.460938 2.074219 3.78125 3.1875 6.140625 3.1875 1.488282 0 2.992188-.445312 4.304688-1.367187 3.386718-2.378907 4.203125-7.054688 1.824218-10.441407-27.703124-39.4375-70.363281-66.566406-117.519531-74.902343-9.375-18.226563-28.363281-30.730469-50.230469-30.730469h-102.675781c-21.351562 0-39.96875 11.914062-49.5625 29.445312-42.964843 5.53125-82.53125 26.210938-111.796875 58.535157-30.410156 33.59375-47.160156 77.066406-47.160156 122.417969v128.941406c0 6.886718 5.605469 12.492187 12.492188 12.492187h69.96875c6.890624 0 12.492187-5.605469 12.492187-12.492187v-128.941406c0-13.007813 2.917969-25.792969 8.40625-37.410157l8.1875 131.246094c.027344.449219.042969.902344.0625 1.351563-.648437.441406-1.265625.941406-1.835937 1.511718-2.359376 2.355469-3.664063 5.492188-3.667969 8.828125l-.027344 24.988281c-.003906 2.433594.703125 4.699219 1.910156 6.625l-7.8125 58.605469-55.152343 39.660157c-2.707032 1.953124-4.496094 4.839843-5.03125 8.136718-.535157 3.292969.246093 6.597656 2.195312 9.304688l14.609375 20.277344c2.4375 3.386718 6.269531 5.1875 10.152344 5.1875 2.527343 0 5.078125-.765626 7.28125-2.351563l70.320312-50.5625h249.492188c.742187 0 1.472656-.050781 2.195312-.132813 7.210938 6.832032 14.15625 13.976563 20.796875 21.429688 2.464844 2.765625 5.914063 4.183594 9.375 4.183594 2.90625 0 5.816406-1 8.160156-3.03125l18.878907-16.371094c2.542969-2.203125 4.0625-5.265625 4.28125-8.625.21875-3.367188-.898438-6.613281-3.144531-9.136719-14.285157-16.0625-29.765626-30.882812-46.242188-44.339843l-4.449219-33.582032c.652344-1.523437.996094-3.175781 1-4.882812l.027344-24.988282c.003906-3.90625-1.796875-7.398437-4.609375-9.691406.035156-1.015625.074219-2.027344.136719-3.035156l8.171875-130.632812c5.5 11.625 8.421875 24.421874 8.421875 37.4375v128.941406c0 6.890625 5.605469 12.496094 12.492187 12.496094h69.96875c6.890625 0 12.492188-5.605469 12.492188-12.496094v-128.941406c.003906-25.046876-4.980469-49.3125-14.8125-72.132813zm-192.417969 180.4375 85.164063.097656-.023438 19.988281-42.503906-.054687c-13.808594-7.539063-28.050782-14.230469-42.636719-20.03125zm-22.921875 13.644531c0 12.121094-9.863281 21.984375-21.984375 21.984375-12.125 0-21.988281-9.863281-21.988281-21.984375 0-12.125 9.863281-21.988281 21.988281-21.988281 12.121094 0 21.984375 9.863281 21.984375 21.988281zm-87.640625 6.183594-73.128906-.097656.023437-19.992188 100.886719.113282zm-90.546875-193.667969c-15.277344 18.351563-23.695312 41.625-23.695312 65.535157v126.441406h-64.96875v-126.441406c0-82.015626 58.621093-150.96875 138.152343-164.90625-.703125 3.546874-1.078125 7.210937-1.078125 10.960937 0 12.011719 3.9375 23.941406 11.082032 33.59375l65.617187 88.636719-92.179687 124.785156-10.066407-.011719c-.003906-.050781-.003906-.101562-.007812-.152343l-9.613281-154.113282c-.191407-3.0625-2.230469-5.703125-5.152344-6.65625s-6.125-.03125-8.089844 2.328125zm18.671875 208.566407 51.0625.066406-56.484375 40.617187zm-54.828125 119.300781-11.6875-16.21875 55.757812-40.097657c.007813-.003906.011719-.007812.019532-.011718l111.496094-80.175782c.746093 7.144532 3.542968 13.683594 7.78125 19.035157zm97.902344-51.929688 77.402344-55.660156c5.105468 2.667969 10.90625 4.183594 17.054687 4.183594 7.683594 0 14.824219-2.355469 20.746094-6.382813 35.691406 13.414063 69.214843 33.078125 98.929687 57.859375zm276.3125 11.40625-15.109375 13.097657c-6.777344-7.507813-13.855469-14.707032-21.191407-21.601563-.8125-1.5-2.070312-2.625-3.535156-3.277344-32.464844-29.710937-69.933594-53.308593-110.195312-69.277343 3.269531-5.511719 5.15625-11.941407 5.15625-18.804688 0-.21875-.015625-.433594-.019532-.652344 54.835938 21.34375 104.667969 55.871094 144.894532 100.515625zm-69.070313-78.445312 17.136719.023437 1.714844 12.964844c-6.164063-4.511719-12.449219-8.847656-18.851563-12.988281zm0 0"/></svg>